# xmcd CD database file
#
# Track frame offsets:
#	150
#	11855
#	29487
#
# Disc length: 547 seconds
#
# Revision: 2
# Processed by: cddbd v1.5.1PL0 Copyright (c) Steve Scherf et al.
# Submitted via: CDex 1.51
#
DISCID=1f022103
DTITLE=神森 徹也 - レミレミ
DYEAR=1995
DGENRE=JPop
TTITLE0=レミレミ
TTITLE1=なんだかんだ
TTITLE2=レミレミ（オリジナルカラオケ）
EXTD=YEAR: 1995
EXTT0=
EXTT1=
EXTT2=
PLAYORDER=
